<svg version="1.1" xmlns="http://www.w3.org/2000/svg" viewBox="0 0 1136.9084034918892 255.8785279036265" width="1136.9084034918892" height="255.8785279036265">
  <!-- svg-source:excalidraw -->
  
  <defs>
    <style>
      @font-face {
        font-family: "Virgil";
        src: url("https://excalidraw.com/Virgil.woff2");
      }
      @font-face {
        font-family: "Cascadia";
        src: url("https://excalidraw.com/Cascadia.woff2");
      }
    </style>
  </defs>
  <rect x="0" y="0" width="1136.9084034918892" height="255.8785279036265" fill="#FFF"></rect><g stroke-linecap="round"><g transform="translate(24.221876639677212 119.34971092595197) rotate(0 -1.7941389898722981 21.138488390943962)"><path d="M-0.46 -1.15 C-1.78 -0.49, -5.11 0.91, -7.04 4.76 C-8.97 8.61, -11.34 16.52, -12.06 21.97 C-12.78 27.42, -11.58 34.44, -11.37 37.46 C-11.16 40.49, -11.49 39.5, -10.82 40.12 C-10.15 40.73, -9.12 40.95, -7.36 41.14 C-5.61 41.33, -3.3 42.4, -0.3 41.25 C2.7 40.1, 8.58 35.73, 10.63 34.24 M1.5 0.86 C0 1.6, -5.4 2.36, -7.72 6 C-10.03 9.64, -11.31 17.32, -12.39 22.68 C-13.48 28.04, -14.23 35.23, -14.22 38.17 C-14.22 41.11, -13.77 39.46, -12.37 40.33 C-10.98 41.21, -7.9 43.43, -5.85 43.42 C-3.79 43.42, -2.58 41.83, -0.05 40.32 C2.49 38.81, 7.55 35.42, 9.36 34.37" stroke="#000000" stroke-width="1" fill="none"></path></g></g><g stroke-linecap="round"><g transform="translate(46.88853313381784 132.68302391423322) rotate(0 12.759020371460359 0.1955616700183782)"><path d="M-0.12 -0.19 C4.26 0, 22.96 0.29, 27.16 0.12 M-1.64 -1.34 C2.58 -0.84, 21.87 1.58, 26.71 1.73" stroke="#000000" stroke-width="1" fill="none"></path></g></g><g stroke-linecap="round"><g transform="translate(61.11076213772409 144.68302391423322) rotate(0 2.9179614203810686 17.034999751849114)"><path d="M1.04 -0.28 C0.61 -0.25, -1.28 -0.32, -2.14 0.56 C-3.01 1.44, -5.61 2.21, -4.15 4.99 C-2.69 7.76, 4.35 14.31, 6.63 17.22 C8.92 20.13, 9.43 20.45, 9.58 22.44 C9.73 24.44, 8.57 27.48, 7.54 29.21 C6.5 30.93, 5.23 32.19, 3.38 32.79 C1.53 33.39, -2.31 32.91, -3.57 32.79 C-4.82 32.67, -4.76 33.43, -4.13 32.08 C-3.5 30.73, -1.86 27.98, 0.19 24.66 C2.24 21.35, 6.46 15.56, 8.16 12.17 C9.85 8.78, 10.66 6.36, 10.36 4.34 C10.07 2.31, 8.23 0.88, 6.38 0.01 C4.53 -0.86, 0.28 -0.91, -0.72 -0.87 M0.12 -1.47 C-0.46 -1.34, -2.5 0.92, -2.82 1.69 C-3.14 2.46, -3.33 0.44, -1.8 3.16 C-0.26 5.89, 4.69 14.84, 6.4 18.03 C8.11 21.21, 8.05 20.57, 8.48 22.25 C8.9 23.93, 9.62 26.58, 8.94 28.1 C8.26 29.62, 6.12 30.14, 4.39 31.39 C2.67 32.64, -0.3 35.66, -1.4 35.59 C-2.5 35.52, -2.09 32.89, -2.21 30.97 C-2.33 29.05, -3.97 27.12, -2.13 24.09 C-0.3 21.06, 6.93 16.15, 8.79 12.78 C10.65 9.41, 9.41 5.59, 9.03 3.85 C8.64 2.12, 8.26 3.28, 6.46 2.39 C4.65 1.49, -0.88 -1.09, -1.81 -1.52" stroke="#000000" stroke-width="1" fill="none"></path></g></g><g stroke-linecap="round"><g transform="translate(59.33296062405221 90.90525291813947) rotate(0 4.952492489190178 12.969934274256161)"><path d="M0.65 -0.73 C0.77 0.27, 1.78 3.98, 1.07 6.21 C0.36 8.44, -5.62 10.77, -3.62 12.66 C-1.62 14.55, 10.56 16.21, 13.07 17.56 C15.57 18.92, 13.36 19.27, 11.4 20.79 C9.45 22.31, 2.84 25.6, 1.36 26.67 M-0.46 1.5 C-0.52 2.68, 0.8 5.72, 0.22 7.74 C-0.37 9.76, -6.2 11.78, -3.96 13.63 C-1.72 15.47, 11.3 17.5, 13.64 18.79 C15.98 20.07, 11.9 20.22, 10.09 21.36 C8.28 22.5, 4.45 24.83, 2.78 25.63" stroke="#000000" stroke-width="1" fill="none"></path></g></g><g stroke-linecap="round"><g transform="translate(52.22187663967721 92.23859642399884) rotate(0 4.024929156177677 -0.6315268493164012)"><path d="M-0.8 -0.32 C0.29 -0.54, 4.98 -1.06, 6.48 -0.98 M0.97 -1.54 C2.47 -1.62, 7.69 0.33, 8.85 0.27" stroke="#000000" stroke-width="1" fill="none"></path></g></g><g stroke-linecap="round"><g transform="translate(142.44407512600534 98.46082542790509) rotate(0 -6.9240726990514645 22.709195054522752)"><path d="M-0.85 -0.03 C-2.77 3.24, -8.78 15.42, -10.48 20.26 C-12.19 25.1, -10.95 25.77, -11.08 28.99 C-11.22 32.21, -11.02 37.32, -11.29 39.57 C-11.55 41.81, -12.74 41.31, -12.67 42.47 C-12.59 43.63, -12.47 46.51, -10.84 46.51 C-9.2 46.51, -4.82 44.88, -2.86 42.46 C-0.9 40.05, -0.07 34.37, 0.9 32.02 C1.86 29.67, 2.98 29.24, 2.93 28.34 C2.89 27.44, 2.34 26.98, 0.62 26.62 C-1.11 26.27, -4.82 25.57, -7.44 26.21 C-10.07 26.85, -13.48 29.27, -15.12 30.44 C-16.76 31.62, -16.82 32.83, -17.27 33.27 M0.91 -1.1 C-0.75 1.78, -6.29 13.8, -8.38 18.51 C-10.46 23.22, -10.65 23.51, -11.6 27.16 C-12.55 30.82, -14.18 37.92, -14.09 40.44 C-14 42.96, -11.75 41.34, -11.06 42.29 C-10.38 43.23, -10.95 45.74, -9.99 46.09 C-9.02 46.45, -7.45 46.87, -5.28 44.43 C-3.1 42, 1.88 34.34, 3.07 31.46 C4.26 28.57, 2.1 27.98, 1.87 27.14 C1.64 26.29, 3.27 26.41, 1.71 26.38 C0.14 26.35, -5.02 26.41, -7.53 26.96 C-10.04 27.5, -11.73 28.23, -13.35 29.67 C-14.97 31.11, -16.9 34.56, -17.25 35.61" stroke="#000000" stroke-width="1" fill="none"></path></g></g><g stroke-linecap="round"><g transform="translate(163.77741863186472 107.79413841618634) rotate(0 11.003882233726458 22.2459382821678)"><path d="M1.16 0.34 C1.63 3.14, 1.38 12.76, 1.95 16.4 C2.52 20.05, 2.74 20.61, 4.56 22.21 C6.38 23.81, 10.07 25.27, 12.88 26 C15.68 26.73, 23.18 23.87, 21.39 26.61 C19.6 29.34, 5.55 39.87, 2.14 42.42 C-1.26 44.97, 1.46 41.9, 0.97 41.9 M0.3 -0.53 C0.75 1.94, 0.2 10.52, 1.32 14.49 C2.45 18.46, 5.16 21.25, 7.04 23.29 C8.93 25.33, 9.93 26.22, 12.65 26.75 C15.38 27.29, 24.98 23.55, 23.38 26.5 C21.78 29.45, 7.2 42.05, 3.05 44.45 C-1.1 46.84, -1.27 41.14, -1.53 40.85" stroke="#000000" stroke-width="1" fill="none"></path></g></g><g stroke-linecap="round"><g transform="translate(166.44407512600534 109.57193992985822) rotate(0 4.418201270126744 -1.7886266786838405)"><path d="M1.12 0.64 C2.68 0.04, 7.46 -1.85, 8.59 -2.44 M0.25 -0.07 C1.72 -0.5, 6.62 -3.98, 7.72 -4.21" stroke="#000000" stroke-width="1" fill="none"></path></g></g><g stroke-linecap="round"><g transform="translate(221.5552201455366 98.46082542790509) rotate(0 0.5006881515860471 20.602066021649193)"><path d="M-1.09 -1.14 C-2.51 4.29, -7.9 26.38, -9.13 32.79 C-10.35 39.2, -9.89 35.92, -8.45 37.33 C-7 38.74, -2.99 41.73, -0.45 41.22 C2.1 40.72, 5.1 36.2, 6.83 34.3 C8.57 32.4, 9.41 31.71, 9.96 29.81 C10.51 27.91, 10.19 24.57, 10.14 22.9 C10.08 21.23, 12.04 19.87, 9.64 19.78 C7.25 19.7, -1.06 21.44, -4.22 22.4 C-7.38 23.35, -8.66 24.93, -9.31 25.52 M0.55 0.88 C-0.44 6.48, -5.68 28.06, -6.77 34.27 C-7.87 40.49, -7.2 36.85, -6.02 38.18 C-4.85 39.51, -1.73 42.89, 0.27 42.27 C2.26 41.66, 4.58 36.74, 5.92 34.49 C7.25 32.25, 7.51 30.88, 8.27 28.79 C9.03 26.69, 10.37 23.49, 10.5 21.91 C10.62 20.34, 11.73 19.5, 9.02 19.33 C6.3 19.16, -2.85 19.86, -5.77 20.87 C-8.7 21.89, -7.68 24.91, -8.53 25.4" stroke="#000000" stroke-width="1" fill="none"></path></g></g><g stroke-linecap="round"><g transform="translate(264.66630412991157 96.68302391423322) rotate(0 -0.31334171096796126 25.267065398646537)"><path d="M-0.53 0.68 C-0.95 8.86, -1.22 41.05, -1.47 49.12 M1.39 -0.01 C0.78 8.36, -1.34 42.17, -2.02 50.54" stroke="#000000" stroke-width="1" fill="none"></path></g></g><g stroke-linecap="round"><g transform="translate(113.1107621377241 168.23859642399884) rotate(0 84.97564704692456 -3.972313027800965)"><path d="M-1.11 -0.62 C26.85 -2.01, 140.34 -6.61, 168.84 -7.81 M0.51 1.66 C28.75 -0.12, 142.95 -7.69, 171.06 -9.61" stroke="#000000" stroke-width="1" fill="none"></path></g></g><g stroke-linecap="round"><g transform="translate(313.11076213772407 71.34971092595197) rotate(0 -1.3148066118836255 81.82476851294746)"><path d="M0.06 0.86 C0.46 5.95, 2.7 4.06, 1.91 30.97 C1.12 57.87, -3.76 140.41, -4.69 162.27 M-1.37 0.26 C-1.03 4.95, 1.43 1.81, 1.26 29 C1.09 56.19, -1.61 141.05, -2.39 163.39" stroke="#000000" stroke-width="1" fill="none"></path></g></g><g stroke-linecap="round"><g transform="translate(359.7774491494428 94.01636742009259) rotate(0 -2.9923369485812543 17.477559441107132)"><path d="M0.06 -0.67 C-2.97 4.33, -15.27 24.93, -17.87 30.54 C-20.47 36.15, -20.79 34.06, -15.51 32.99 C-10.24 31.91, 9.04 25.85, 13.78 24.09 M-1.37 1.6 C-4.56 6.67, -16.23 26.08, -18.63 31.54 C-21.04 37, -21.27 35.94, -15.79 34.36 C-10.31 32.77, 9.14 24.04, 14.27 22.04" stroke="#000000" stroke-width="1" fill="none"></path></g></g><g stroke-linecap="round"><g transform="translate(361.55522014553657 107.79413841618634) rotate(0 -1.5446578021812059 15.28488545420521)"><path d="M-0.22 -1.04 C-0.77 3.69, -2.04 24.22, -2.48 28.76 C-2.92 33.29, -3.14 26.61, -2.86 26.19 M-1.79 1.03 C-2.03 5.92, -0.35 25.89, -0.14 30.22 C0.07 34.56, -0.56 27.58, -0.53 27.02" stroke="#000000" stroke-width="1" fill="none"></path></g></g><g stroke-linecap="round"><g transform="translate(343.7774491494428 155.34971092595197) rotate(0 9.916157485544687 0.48683923146757024)"><path d="M-0.88 0.35 C2.73 0.44, 17.35 1.46, 20.71 1.57 M0.86 -0.51 C4.41 -0.28, 16.45 -0.88, 19.9 -0.42" stroke="#000000" stroke-width="1" fill="none"></path></g></g><g stroke-linecap="round"><g transform="translate(340.22184612209907 172.68302391423322) rotate(0 14.538430379331118 -0.9425584778189204)"><path d="M-0.28 0.05 C4.57 -0.08, 24.58 -1.77, 29.36 -1.94 M1.77 -0.97 C6.45 -0.85, 23.59 -0.36, 28.42 -0.72" stroke="#000000" stroke-width="1" fill="none"></path></g></g><g stroke-linecap="round"><g transform="translate(428.66630412991157 101.12748192204572) rotate(0 -0.0907194727938645 13.16093817102717)"><path d="M0.37 -0.35 C-0.8 0.99, -7.38 5.16, -6.3 7.57 C-5.22 9.99, 6.88 10.92, 6.85 14.14 C6.82 17.36, -3.91 24.67, -6.47 26.9 M-0.9 -1.58 C-2.29 -0.07, -8.96 5.89, -7.29 8.65 C-5.61 11.4, 9.47 11.74, 9.13 14.95 C8.8 18.16, -6.65 25.7, -9.32 27.9" stroke="#000000" stroke-width="1" fill="none"></path></g></g><g stroke-linecap="round"><g transform="translate(416.22184612209907 97.57193992985822) rotate(0 7.160012205438704 1.318887358857296)"><path d="M0.77 1 C2.75 1.21, 10.07 0.63, 12.23 0.56 M-0.28 0.48 C2.06 0.96, 12.31 1.91, 14.6 2.16" stroke="#000000" stroke-width="1" fill="none"></path></g></g><g stroke-linecap="round"><g transform="translate(424.22184612209907 146.4608254279051) rotate(0 2.205766585500868 -3.2210914668619353)"><path d="M0.85 0.16 C1.15 -0.48, 0.92 -3.14, 1.15 -3.75 C1.38 -4.36, 2.39 -3.43, 2.23 -3.49 C2.08 -3.55, 0.03 -4.12, 0.2 -4.11 C0.37 -4.11, 3.38 -4.1, 3.27 -3.46 C3.17 -2.82, 0.13 -0.89, -0.44 -0.29 M-0.16 -0.8 C0.6 -1.8, 2.73 -4.71, 3.54 -5.51 C4.34 -6.3, 5.24 -5.44, 4.67 -5.56 C4.09 -5.69, 0.51 -6.15, 0.09 -6.26 C-0.34 -6.37, 2.01 -7.01, 2.12 -6.21 C2.23 -5.41, 1.02 -2.33, 0.74 -1.48" stroke="#000000" stroke-width="1" fill="none"></path></g></g><g stroke-linecap="round"><g transform="translate(424.22184612209907 140.23859642399884) rotate(0 2.6135365335906044 2.3634490735363443)"><path d="M-1.15 0.59 C-1.42 0.91, -1.53 1.96, -0.8 2.67 C-0.06 3.38, 3.05 4.53, 3.27 4.85 C3.49 5.16, 0.57 5.01, 0.52 4.55 C0.46 4.09, 1.91 2.34, 2.95 2.08 C3.98 1.82, 6.71 2.71, 6.72 3 C6.73 3.29, 3.93 4.4, 3 3.83 C2.08 3.26, 1.53 0.23, 1.18 -0.42 M0.45 -0.15 C0 0.27, -1.78 3.5, -1.46 3.98 C-1.14 4.46, 1.94 2.43, 2.35 2.72 C2.77 3.01, 1.2 5.73, 1.04 5.71 C0.88 5.7, 0.73 3.19, 1.39 2.63 C2.04 2.07, 5.14 2.37, 4.97 2.37 C4.81 2.37, 1.1 3.18, 0.4 2.62 C-0.3 2.06, 0.88 -0.3, 0.77 -0.99" stroke="#000000" stroke-width="1" fill="none"></path></g></g><g stroke-linecap="round"><g transform="translate(360.66630412991157 145.12748192204572) rotate(0 -0.7936672032158754 0.8318349472840509)"><path d="M-0.79 0.04 C-1.26 0.36, -1.58 2.13, -1.69 2.48 C-1.8 2.84, -1.54 2.6, -1.42 2.15 C-1.3 1.71, -1.14 0.29, -0.96 -0.19 M1 -0.99 C0.28 -1.03, -2.58 0.8, -2.59 0.97 C-2.6 1.13, 0.73 0.03, 0.96 0 C1.19 -0.02, -1.34 0.94, -1.21 0.81" stroke="#000000" stroke-width="1" fill="none"></path></g></g><g stroke-linecap="round"><g transform="translate(360.22184612209907 146.90525291813947) rotate(0 2.229277018384977 -0.02023948732801273)"><path d="M0.94 0.99 C1.3 1.1, 2.95 0.14, 2.71 0.22 C2.47 0.3, -0.21 1.31, -0.49 1.46 C-0.77 1.62, 0.76 1.46, 1.04 1.17 M-0.02 0.46 C0.66 0.27, 4.65 -1.37, 4.98 -1.55 C5.3 -1.72, 2.43 -0.7, 1.91 -0.58 C1.39 -0.45, 2.09 -0.87, 1.83 -0.77" stroke="#000000" stroke-width="1" fill="none"></path></g></g><g stroke-linecap="round"><g transform="translate(359.7774491494428 147.79413841618634) rotate(0 1.1989376105645704 -0.48358952523255994)"><path d="M-0.43 -0.71 C0.06 -1.11, 2.33 -1.85, 2.72 -1.41 C3.1 -0.98, 2.27 1.4, 1.87 1.9 C1.47 2.41, 0.47 2.02, 0.32 1.63 C0.18 1.24, 0.88 -0.14, 1.02 -0.44 C1.17 -0.75, 1.34 -0.1, 1.2 -0.18 M1.55 1.53 C1.9 0.71, 1.82 -2.87, 1.8 -3.11 C1.77 -3.35, 1.53 -0.37, 1.39 0.1 C1.25 0.56, 0.74 -0.32, 0.98 -0.3 C1.21 -0.29, 3.05 0.35, 2.81 0.18 C2.58 0.01, -0.1 -1.44, -0.42 -1.32" stroke="#000000" stroke-width="1" fill="none"></path></g></g><g stroke-linecap="round"><g transform="translate(484.66630412991157 96.23859642399884) rotate(0 -2.3174103513360365 16.791275201938106)"><path d="M0.95 -1.09 C-0.17 4.66, -4.65 27.51, -5.58 33.36 M-0.01 0.95 C-0.84 6.97, -2.36 28.93, -3.24 34.67" stroke="#000000" stroke-width="1" fill="none"></path></g></g><g stroke-linecap="round"><g transform="translate(482.4440751260053 103.79413841618634) rotate(0 -1.603338892979906 17.66676588681935)"><path d="M0.06 -0.75 C-0.32 4.82, -2.06 28.36, -2.4 33.9 C-2.74 39.45, -2.1 32.72, -2 32.51 M-1.37 1.47 C-1.87 6.64, -3 27.25, -3.21 32.08 C-3.42 36.91, -2.96 30.71, -2.66 30.44" stroke="#000000" stroke-width="1" fill="none"></path></g></g><g stroke-linecap="round"><g transform="translate(477.9996171181928 148.68302391423322) rotate(0 1.575603597285209 0.34377376884219757)"><path d="M-0.09 0.94 C-0.07 1.25, -0.65 1.52, -0.53 1.59 C-0.41 1.66, 0.55 0.94, 0.61 1.35 C0.67 1.76, 0.11 4.04, -0.18 4.04 C-0.48 4.04, -1.47 2.14, -1.15 1.35 C-0.84 0.57, 1.2 -0.74, 1.73 -0.68 C2.26 -0.61, 2.31 1.31, 2.04 1.77 C1.77 2.22, -0.22 2.9, 0.12 2.05 C0.46 1.19, 3.58 -3.13, 4.08 -3.36 C4.58 -3.59, 3.69 0.01, 3.12 0.67 C2.54 1.33, 0.92 0.8, 0.64 0.63 C0.35 0.45, 0.77 0.22, 1.41 -0.38 C2.05 -0.98, 4.57 -3.11, 4.49 -2.95 C4.42 -2.8, 1.58 0.14, 0.96 0.55 M-1.6 0.39 C-1.61 0.38, -1.35 -0.55, -1.05 -0.17 C-0.76 0.21, -0.08 2.32, 0.17 2.68 C0.42 3.04, 0.39 2.05, 0.44 1.98 C0.48 1.9, 0.02 2.29, 0.43 2.22 C0.84 2.16, 2.49 1.36, 2.89 1.59 C3.29 1.82, 3.48 3.49, 2.82 3.61 C2.16 3.73, -1.05 3.2, -1.07 2.32 C-1.09 1.43, 2.39 -1.84, 2.69 -1.67 C2.98 -1.51, 1.01 2.85, 0.7 3.3 C0.39 3.74, 0.94 1.61, 0.83 1.01 C0.72 0.41, -0.61 -0.05, 0.04 -0.3 C0.69 -0.55, 4.63 -0.66, 4.75 -0.5 C4.87 -0.34, 1.3 0.78, 0.76 0.65" stroke="#000000" stroke-width="1" fill="none"></path></g></g><g stroke-linecap="round"><g transform="translate(470.4440751260053 166.90525291813947) rotate(0 7.565615607798094 0.6756907184701504)"><path d="M-0.31 0.37 C2.34 0.31, 12.83 0.27, 15.44 0.5 M1.73 -0.47 C4.3 -0.44, 12.51 1.77, 14.67 1.83" stroke="#000000" stroke-width="1" fill="none"></path></g></g><g stroke-linecap="round"><g transform="translate(471.3329911416303 158.90525291813947) rotate(0 9.414654721529246 0.49717196355663873)"><path d="M0.07 -0.61 C3.37 -0.83, 16.85 -0.55, 20.18 -0.52 M-1.35 1.69 C1.73 1.51, 15.69 0.72, 19.09 0.51" stroke="#000000" stroke-width="1" fill="none"></path></g></g><g stroke-linecap="round"><g transform="translate(482.8885331338178 168.68302391423322) rotate(0 4.475805892706859 -0.6960250154137384)"><path d="M-1.13 -0.03 C0.14 -0.26, 6.24 -1.47, 7.89 -1.36 M0.48 -1.09 C2.08 -1.2, 8.83 -0.29, 10.08 -0.31" stroke="#000000" stroke-width="1" fill="none"></path></g></g><g stroke-linecap="round"><g transform="translate(519.3329911416304 67.34971092595197) rotate(0 -3.3722475381812274 83.47701498660263)"><path d="M0.12 -0.31 C-0.01 6.92, 0.13 16, -1.21 43.94 C-2.56 71.87, -6.92 146.55, -7.95 167.29 M-1.27 -1.52 C-0.99 5.33, 1.8 13.92, 1.09 42.25 C0.39 70.58, -4.1 147.8, -5.5 168.47" stroke="#000000" stroke-width="1" fill="none"></path></g></g><g stroke-linecap="round"><g transform="translate(489.9996171181928 65.12748192204572) rotate(0 41.588686117501936 -13.667940109709662)"><path d="M-0.14 0.9 C1.36 -1.46, 3.25 -8.35, 8.77 -13.36 C14.29 -18.36, 23.87 -26.31, 32.99 -29.12 C42.12 -31.94, 56.07 -31.11, 63.5 -30.25 C70.93 -29.39, 74.2 -29.48, 77.55 -23.95 C80.91 -18.43, 82.43 -1.7, 83.63 2.89 M-1.67 0.33 C-0.29 -1.91, 1.8 -7.12, 7.99 -11.83 C14.18 -16.54, 26.23 -24.51, 35.48 -27.93 C44.73 -31.35, 56.7 -33.05, 63.49 -32.36 C70.27 -31.66, 72.63 -30.02, 76.19 -23.77 C79.75 -17.52, 83.85 0.82, 84.85 5.16" stroke="#000000" stroke-width="1" fill="none"></path></g></g><g stroke-linecap="round"><g transform="translate(571.7774491494429 83.34971092595197) rotate(0 -1.2781528438394503 23.416134781790902)"><path d="M0.54 -0.31 C0.05 7.34, -1.4 38.94, -1.87 47.07 M-0.63 -1.52 C-1.43 6.81, -3.22 40.34, -3.1 48.35" stroke="#000000" stroke-width="1" fill="none"></path></g></g><g stroke-linecap="round"><g transform="translate(570.4440751260054 147.79413841618634) rotate(0 0.7432529823223604 -4.482368851816659)"><path d="M-0.15 -0.44 C0.07 -0.72, 1.57 -1.97, 1.5 -2.24 C1.43 -2.5, -0.58 -1.77, -0.57 -2.02 C-0.56 -2.28, 1.37 -3.76, 1.55 -3.79 C1.73 -3.81, 0.91 -2.56, 0.52 -2.2 C0.13 -1.83, -0.9 -1.19, -0.8 -1.61 C-0.7 -2.02, 0.6 -4.25, 1.1 -4.69 C1.6 -5.12, 2.23 -5.01, 2.22 -4.22 C2.22 -3.42, 1.64 -0.39, 1.08 0.09 C0.53 0.58, -0.98 -0.39, -1.1 -1.31 C-1.22 -2.23, 0.04 -4.42, 0.37 -5.42 C0.7 -6.42, 0.41 -7.33, 0.88 -7.32 C1.35 -7.31, 3.49 -5.6, 3.19 -5.37 C2.89 -5.14, -0.26 -5.66, -0.93 -5.95 C-1.6 -6.23, -1.36 -6.51, -0.82 -7.05 C-0.27 -7.59, 1.75 -9.37, 2.32 -9.18 C2.88 -9, 3.09 -6.9, 2.59 -5.96 C2.08 -5.02, 0.2 -3.09, -0.72 -3.54 C-1.65 -3.99, -2.96 -9.25, -2.96 -8.65 C-2.96 -8.04, -1.24 -1.5, -0.71 0.09 M-1.69 -1.72 C-1.66 -2.32, 0.36 -3.79, 0.41 -4.13 C0.46 -4.48, -1.57 -3.49, -1.4 -3.8 C-1.23 -4.11, 0.83 -6.33, 1.45 -6 C2.06 -5.66, 2.95 -2.45, 2.28 -1.79 C1.62 -1.14, -2.46 -1.48, -2.53 -2.09 C-2.6 -2.7, 0.7 -4.99, 1.85 -5.46 C3.01 -5.93, 4.78 -5.68, 4.39 -4.9 C4 -4.12, 0.32 -1.27, -0.49 -0.78 C-1.29 -0.29, -0.71 -1.4, -0.44 -1.98 C-0.17 -2.56, 0.6 -3.3, 1.12 -4.24 C1.63 -5.18, 2.19 -7.82, 2.66 -7.62 C3.12 -7.41, 4.65 -3.17, 3.93 -3.02 C3.21 -2.86, -0.85 -6.01, -1.66 -6.69 C-2.47 -7.37, -1.76 -6.88, -0.91 -7.11 C-0.07 -7.34, 2.96 -8.35, 3.4 -8.09 C3.85 -7.83, 2.11 -6.44, 1.76 -5.55 C1.4 -4.65, 1.78 -2.13, 1.27 -2.7 C0.76 -3.27, -1 -9.14, -1.31 -8.96 C-1.62 -8.79, -0.69 -3.16, -0.6 -1.64" stroke="#000000" stroke-width="1" fill="none"></path></g></g><g stroke-linecap="round"><g transform="translate(651.2212841703672 67.53810008279538) rotate(0 -4.905023778170744 34.74639611071598)"><path d="M-0.73 -0.63 C-2.12 1.59, -6.18 9.27, -7.54 13.49 C-8.91 17.71, -7.7 17.91, -8.93 24.69 C-10.16 31.47, -14.46 47.06, -14.91 54.15 C-15.36 61.24, -12.78 64.61, -11.6 67.22 C-10.42 69.84, -9.52 69.82, -7.82 69.87 C-6.11 69.92, -3.39 68.96, -1.36 67.52 C0.66 66.07, 3.27 63.03, 4.35 61.18 C5.43 59.34, 5.54 58.34, 5.12 56.46 C4.7 54.57, 3.55 51.19, 1.83 49.89 C0.11 48.58, -2.6 48.71, -5.21 48.63 C-7.82 48.54, -12.25 49.13, -13.82 49.36 M1.09 1.65 C-0.02 4.03, -3.63 11.26, -5.38 14.77 C-7.13 18.28, -7.77 16.52, -9.4 22.72 C-11.03 28.92, -15.05 44.59, -15.15 51.97 C-15.25 59.35, -11.47 64.19, -10 66.99 C-8.52 69.8, -7.83 68.36, -6.31 68.8 C-4.8 69.24, -2.59 70.97, -0.91 69.62 C0.77 68.27, 2.99 63.05, 3.77 60.71 C4.55 58.38, 4.03 57.54, 3.77 55.61 C3.52 53.68, 3.75 50.13, 2.25 49.15 C0.74 48.16, -2.41 49.75, -5.27 49.71 C-8.12 49.67, -13.35 48.94, -14.88 48.9" stroke="#000000" stroke-width="1" fill="none"></path></g></g><g stroke-linecap="round"><g transform="translate(688.6745134101845 72.5318388358678) rotate(0 6.470867150042352 31.06444393060451)"><path d="M1.03 -0.67 C0.22 2.27, -4.49 13.13, -5.04 18.26 C-5.6 23.39, -3.97 26.53, -2.31 30.13 C-0.65 33.72, 1.11 37.21, 4.92 39.83 C8.73 42.45, 20.22 43.25, 20.54 45.86 C20.86 48.48, 11.01 53.02, 6.84 55.53 C2.67 58.04, -2.21 60.04, -4.47 60.93 C-6.73 61.82, -6.36 61.06, -6.72 60.88 M0.1 1.6 C-0.88 4.62, -5.77 15, -6.28 19.42 C-6.79 23.85, -4.88 24.56, -2.98 28.13 C-1.08 31.71, 1.4 37.86, 5.13 40.87 C8.85 43.89, 18.95 43.41, 19.37 46.21 C19.79 49.02, 11.52 54.93, 7.65 57.68 C3.79 60.43, -1.27 62.21, -3.81 62.72 C-6.36 63.24, -6.89 60.92, -7.6 60.78" stroke="#000000" stroke-width="1" fill="none"></path></g></g><g stroke-linecap="round"><g transform="translate(686.1776268889416 85.51562817268314) rotate(0 11.198911986550797 -2.7866732191672554)"><path d="M0.14 -0.15 C3.72 -1.23, 17.93 -4.76, 21.46 -5.42 M-1.24 -1.28 C2.71 -1.68, 19.5 -3.32, 23.64 -4.1" stroke="#000000" stroke-width="1" fill="none"></path></g></g><g stroke-linecap="round"><g transform="translate(666.202603297825 157.4257405322337) rotate(0 20.44382951179381 -0.7984723733179635)"><path d="M0.87 -0.73 C7.42 -0.73, 32.44 -1.17, 38.87 -1.16 M-0.13 1.5 C6.82 1.23, 34.59 -2.42, 41.01 -3.1" stroke="#000000" stroke-width="1" fill="none"></path></g></g><g stroke-linecap="round"><g transform="translate(636.2400336217365 155.42824503100474) rotate(0 17.568926046612717 0.6556941948534813)"><path d="M-0.51 0.85 C5.24 0.82, 27.53 -0.06, 33.46 0.13 M1.42 0.25 C7.64 0.32, 30.12 1.23, 35.65 1.21" stroke="#000000" stroke-width="1" fill="none"></path></g></g><g stroke-linecap="round"><g transform="translate(625.7531650955779 185.39081470709334) rotate(0 36.67527178896637 -2.287624986134915)"><path d="M-1.15 1.07 C10.74 0.31, 59.86 -4.53, 72.35 -5.65 M0.45 0.59 C12.61 0.07, 62.37 -3.58, 74.5 -4.45" stroke="#000000" stroke-width="1" fill="none"></path></g></g><g stroke-linecap="round"><g transform="translate(766.0777212534078 60.546831539080586) rotate(0 -10.347474030515514 85.00211224944292)"><path d="M0.34 0.26 C-1.73 16.65, -9.51 70.26, -12.98 98.66 C-16.46 127.06, -19.18 158.87, -20.51 170.65 M-0.94 -0.65 C-3.04 15.37, -10.06 68.76, -13.4 96.95 C-16.75 125.14, -19.81 156.33, -21.04 168.5" stroke="#000000" stroke-width="1" fill="none"></path></g></g><g stroke-linecap="round"><g transform="translate(813.51842799937 63.54307479092404) rotate(0 2.272888844689305 27.146868431745133)"><path d="M-0.62 0.19 C-1.52 1.39, -3.1 2.84, -5.01 8.29 C-6.93 13.75, -10.78 26.86, -12.12 32.92 C-13.45 38.98, -13.4 41.45, -13 44.64 C-12.6 47.84, -10.8 50.74, -9.7 52.1 C-8.6 53.45, -7.82 52.5, -6.38 52.78 C-4.94 53.06, -2.67 53.98, -1.08 53.77 C0.51 53.57, 1.68 52.08, 3.15 51.53 C4.63 50.98, 5.41 53.15, 7.77 50.48 C10.13 47.81, 16.34 38.81, 17.32 35.52 C18.31 32.22, 15.64 30.9, 13.69 30.72 C11.74 30.53, 9.83 32.26, 5.62 34.41 C1.42 36.56, -8.45 41.81, -11.52 43.62 C-14.59 45.43, -12.58 44.61, -12.8 45.26 M1.26 -0.76 C0.11 1.05, -3.87 3.94, -6.24 9.21 C-8.6 14.47, -11.86 24.71, -12.95 30.82 C-14.04 36.93, -13.08 42.18, -12.76 45.85 C-12.44 49.52, -11.76 51.3, -11.02 52.83 C-10.28 54.37, -9.54 55.13, -8.31 55.05 C-7.07 54.97, -5.32 53.07, -3.61 52.35 C-1.9 51.62, -0.22 51.16, 1.95 50.71 C4.11 50.26, 6.71 51.72, 9.38 49.64 C12.06 47.56, 17.26 41.29, 18.01 38.23 C18.76 35.18, 16.07 31.98, 13.86 31.31 C11.66 30.64, 9.09 32.24, 4.8 34.22 C0.52 36.19, -8.84 40.84, -11.83 43.15 C-14.82 45.47, -13.09 47.38, -13.15 48.11" stroke="#000000" stroke-width="1" fill="none"></path></g></g><g stroke-linecap="round"><g transform="translate(870.4472898102899 63.54307479092404) rotate(0 -2.732118639922703 35.02836669922635)"><path d="M-0.94 -0.29 C-2.15 11.66, -5.55 59.93, -6.24 71.54 M0.77 -1.48 C-0.14 10.17, -2.86 58.07, -3.92 70.01" stroke="#000000" stroke-width="1" fill="none"></path></g></g><g stroke-linecap="round"><g transform="translate(925.8779785611678 69.03623885342404) rotate(0 3.3290428110016137 13.708222583049974)"><path d="M0.64 1.05 C-2.2 5.23, -14.06 19.88, -16.38 23.89 C-18.69 27.89, -20.15 26.05, -13.24 25.09 C-6.33 24.13, 18.85 19.54, 25.08 18.14 M-0.48 0.56 C-3.53 4.52, -15.08 17.92, -17.27 22.24 C-19.46 26.56, -20.77 27.53, -13.62 26.48 C-6.47 25.42, 19.01 17.57, 25.65 15.93" stroke="#000000" stroke-width="1" fill="none"></path></g></g><g stroke-linecap="round"><g transform="translate(935.8655246461396 74.5293686265104) rotate(0 -0.806905995107229 25.25507834239704)"><path d="M-1.1 0.82 C-1.49 8.37, -1.59 38.5, -1.57 45.93 C-1.55 53.36, -1.14 45.27, -0.97 45.41 M0.52 0.2 C-0.01 7.81, -1.7 39.23, -2.03 46.94 C-2.36 54.65, -1.83 46.84, -1.46 46.45" stroke="#000000" stroke-width="1" fill="none"></path></g></g><g stroke-linecap="round"><g transform="translate(976.8142852895736 73.03122985588175) rotate(0 10.094112312600373 18.467930555299404)"><path d="M0.82 -0.98 C2.47 -0.2, 9.23 2.66, 9.38 5.67 C9.53 8.69, 3.14 14.9, 1.71 17.11 C0.27 19.33, -2.13 18.1, 0.77 18.94 C3.67 19.78, 18.47 19.31, 19.11 22.14 C19.76 24.96, 7.24 33.36, 4.66 35.87 M-0.22 1.12 C1.32 2.04, 8.12 4.4, 8.38 7.3 C8.63 10.2, 2.6 16.38, 1.31 18.5 C0.02 20.62, -2.67 19.38, 0.63 20.02 C3.93 20.67, 20.71 19.37, 21.11 22.35 C21.51 25.33, 5.81 35.65, 3.02 37.92" stroke="#000000" stroke-width="1" fill="none"></path></g></g><g stroke-linecap="round"><g transform="translate(1023.2562785743348 66.5393523321809) rotate(0 9.674987555808912 22.063212736281343)"><path d="M-1.09 0.15 C0.09 0.8, 6.6 2.18, 6.71 5.09 C6.82 8.01, -2.28 14.74, -0.45 17.64 C1.39 20.53, 14.67 21.41, 17.71 22.46 C20.75 23.51, 20.77 20.19, 17.81 23.94 C14.85 27.68, 3.12 41.32, -0.03 44.95 M0.54 -0.82 C1.61 0.04, 6.16 0.32, 5.87 3.55 C5.59 6.77, -3.13 15.7, -1.18 18.51 C0.76 21.33, 14.12 19.45, 17.55 20.42 C20.98 21.38, 22.61 20.44, 19.39 24.31 C16.17 28.18, 1.54 40.29, -1.77 43.64" stroke="#000000" stroke-width="1" fill="none"></path></g></g><g stroke-linecap="round"><g transform="translate(1078.68703590404 48.56182424229337) rotate(0 -6.603606344095965 97.42185040851882)"><path d="M-0.5 -0.07 C-0.37 1.05, 2.76 -10.19, 0.73 7.71 C-1.29 25.6, -10.26 76.79, -12.68 107.3 C-15.09 137.81, -13.78 177.01, -13.77 190.75 C-13.77 204.49, -12.88 189.9, -12.65 189.74 M1.44 -1.16 C1.43 0.06, 2.45 -8.63, -0.09 9.1 C-2.63 26.82, -11.5 74.81, -13.8 105.18 C-16.11 135.55, -13.87 177.21, -13.94 191.32 C-14 205.43, -14.71 190.33, -14.21 189.85" stroke="#000000" stroke-width="1" fill="none"></path></g></g><g stroke-linecap="round"><g transform="translate(1108.649537001301 64.54185683095193) rotate(0 7.524763414766426 20.43573679734368)"><path d="M0.63 -0.32 C2.06 1.84, 8.82 8.11, 8.35 12.59 C7.88 17.08, -0.68 23.86, -2.18 26.58 C-3.69 29.29, -3.82 28.57, -0.7 28.88 C2.42 29.18, 15.52 26.7, 16.53 28.4 C17.54 30.11, 8.21 36.78, 5.37 39.11 C2.54 41.45, 0.13 41.86, -0.49 42.4 M-0.5 -1.53 C0.77 0.3, 7.66 5.88, 7.33 10.79 C6.99 15.7, -1.3 25.28, -2.52 27.95 C-3.75 30.62, -3.49 26.62, -0.03 26.8 C3.43 26.98, 17.1 27.17, 18.22 29.02 C19.35 30.87, 9.82 35.89, 6.72 37.9 C3.62 39.9, 0.55 40.35, -0.36 41.03" stroke="#000000" stroke-width="1" fill="none"></path></g></g><g stroke-linecap="round"><g transform="translate(1113.643310043787 135.4531871504746) rotate(0 1.2179669117304002 4.04003591865569)"><path d="M-0.34 -0.99 C-0.83 -0.19, -2.92 4.3, -2.54 4.66 C-2.17 5.03, 1.75 1.01, 1.93 1.18 C2.1 1.35, -0.78 5.68, -1.49 5.66 C-2.2 5.64, -3.03 1.71, -2.34 1.07 C-1.65 0.42, 2.22 1.33, 2.64 1.8 C3.05 2.27, 0.95 3.69, 0.17 3.91 C-0.61 4.13, -2.08 4.04, -2.05 3.12 C-2.02 2.2, -0.23 -1.24, 0.35 -1.62 C0.93 -2.01, 1.45 -0.19, 1.42 0.8 C1.39 1.79, 0.53 3.53, 0.18 4.34 C-0.17 5.14, -0.53 6.15, -0.68 5.63 C-0.83 5.11, -0.98 2.16, -0.71 1.23 C-0.44 0.3, 0 0.38, 0.95 0.06 C1.91 -0.27, 4.86 -1.07, 5.01 -0.73 C5.16 -0.39, 2.65 1.65, 1.85 2.1 C1.06 2.56, 0.54 2.16, 0.23 2.02 C-0.08 1.89, -0.24 1.31, -0.01 1.27 C0.22 1.23, 1.07 1.51, 1.62 1.79 C2.18 2.07, 3.49 2.22, 3.32 2.93 C3.16 3.64, 0.9 5.68, 0.63 6.06 C0.36 6.44, 0.87 5.02, 1.68 5.23 C2.48 5.43, 5.55 6.86, 5.46 7.29 C5.38 7.72, 2.26 8.85, 1.17 7.81 C0.08 6.77, -0.83 2.16, -1.07 1.05 M1.69 1.11 C0.99 1.62, -3.42 3, -3.52 3.16 C-3.61 3.31, 0.79 1.97, 1.13 2.07 C1.46 2.16, -1.21 3.81, -1.5 3.72 C-1.78 3.62, -1.44 1.92, -0.59 1.49 C0.26 1.07, 3.87 0.45, 3.6 1.18 C3.32 1.92, -1.16 5.59, -2.23 5.91 C-3.31 6.23, -3.54 4.03, -2.83 3.1 C-2.13 2.17, 1.21 0.71, 2 0.32 C2.78 -0.07, 2.08 -0.01, 1.89 0.77 C1.7 1.54, 1.45 4.14, 0.85 4.98 C0.26 5.82, -1.38 6.5, -1.67 5.8 C-1.95 5.1, -1.69 1.68, -0.85 0.79 C-0.01 -0.11, 2.29 0.78, 3.36 0.42 C4.44 0.05, 5.74 -1.86, 5.6 -1.41 C5.47 -0.95, 3.11 2.49, 2.55 3.15 C1.99 3.81, 2.31 2.75, 2.24 2.53 C2.16 2.3, 1.9 1.83, 2.1 1.77 C2.3 1.72, 3.08 1.78, 3.44 2.2 C3.79 2.61, 4.83 3.23, 4.24 4.25 C3.65 5.27, 0.33 8.31, -0.12 8.31 C-0.57 8.31, 0.52 4.03, 1.54 4.26 C2.55 4.5, 5.81 9.2, 5.95 9.72 C6.09 10.23, 3.36 9.26, 2.37 7.35 C1.39 5.43, 0.29 -0.81, 0.03 -1.77" stroke="#000000" stroke-width="1" fill="none"></path></g></g><g stroke-linecap="round"><g transform="translate(984.3049448533026 128.46195289617322) rotate(0 0.7961177904471697 3.428541928541108)"><path d="M-0.56 -0.98 C-0.16 -0.73, 2.41 1.08, 2.76 2.08 C3.11 3.08, 2.16 4.57, 1.53 5.01 C0.9 5.45, -1.25 5.17, -1.02 4.71 C-0.79 4.24, 2.14 2.62, 2.91 2.22 C3.69 1.83, 3.64 1.85, 3.61 2.34 C3.59 2.82, 3.49 4.44, 2.75 5.13 C2 5.82, -0.31 6.94, -0.87 6.48 C-1.44 6.02, -1.02 2.99, -0.64 2.37 C-0.26 1.75, 0.97 2.36, 1.42 2.78 C1.87 3.2, 2.11 4.17, 2.06 4.88 C2 5.6, 1.93 6.97, 1.09 7.08 C0.25 7.19, -2.61 6.13, -2.97 5.55 C-3.33 4.97, -1.65 4.29, -1.08 3.59 C-0.52 2.9, -0.42 1.33, 0.42 1.38 C1.25 1.43, 3.5 3.3, 3.93 3.91 C4.35 4.53, 3.87 4.88, 2.96 5.08 C2.05 5.27, -1.02 5.52, -1.53 5.08 C-2.05 4.63, -0.78 2.71, -0.12 2.41 C0.53 2.1, 1.94 2.79, 2.4 3.26 C2.86 3.73, 2.89 4.4, 2.63 5.23 C2.36 6.06, 1.74 7.78, 0.81 8.23 C-0.11 8.68, -2.68 8.32, -2.91 7.95 C-3.14 7.59, -1.05 7.04, -0.55 6.02 C-0.05 5, 0.11 2.97, 0.08 1.81 C0.04 0.65, -0.79 -0.53, -0.78 -0.94 M1.35 1.11 C1.53 1.48, 1.82 3.05, 1.69 3.39 C1.55 3.74, 0.89 3.35, 0.52 3.2 C0.15 3.06, -0.67 2.6, -0.52 2.52 C-0.37 2.44, 0.51 2.42, 1.4 2.73 C2.29 3.03, 4.47 3.64, 4.83 4.35 C5.18 5.06, 4.59 6.65, 3.52 6.99 C2.45 7.33, -1.15 7.41, -1.57 6.4 C-1.99 5.38, 0.48 1.62, 1.01 0.92 C1.55 0.22, 1.38 1.44, 1.62 2.21 C1.85 2.98, 2.64 4.8, 2.41 5.55 C2.18 6.3, 1.15 6.32, 0.25 6.71 C-0.65 7.1, -2.73 8.48, -2.99 7.89 C-3.25 7.31, -1.83 4.38, -1.31 3.19 C-0.78 2, -0.34 0.96, 0.18 0.76 C0.69 0.56, 1.45 1.14, 1.79 1.99 C2.13 2.84, 2.94 5.37, 2.21 5.87 C1.49 6.36, -1.99 5.51, -2.58 4.96 C-3.17 4.42, -2.26 3.13, -1.31 2.61 C-0.37 2.1, 2.56 1.1, 3.09 1.88 C3.62 2.66, 2.13 6.45, 1.87 7.3 C1.61 8.16, 2.36 7.04, 1.53 7 C0.69 6.96, -2.54 7.29, -3.15 7.07 C-3.75 6.85, -2.81 6.6, -2.08 5.67 C-1.35 4.74, 0.9 2.69, 1.24 1.48 C1.59 0.27, -0.1 -1.1, -0.04 -1.58" stroke="#000000" stroke-width="1" fill="none"></path></g></g><g stroke-linecap="round"><g transform="translate(1028.7493740580076 127.46320514555873) rotate(0 3.2075429217569535 4.299248037288407)"><path d="M1.03 -0.92 C0.67 -1.21, -2.19 -1.12, -2.18 -0.78 C-2.18 -0.44, 0.64 0.32, 1.06 1.11 C1.48 1.89, 0.69 3.36, 0.35 3.92 C0 4.48, -0.76 4.78, -1 4.45 C-1.23 4.12, -1.73 2.51, -1.07 1.93 C-0.42 1.35, 1.93 0.76, 2.94 0.98 C3.94 1.21, 5.11 2.03, 4.95 3.29 C4.79 4.54, 2.89 7.46, 1.99 8.51 C1.09 9.57, 0.24 9.87, -0.44 9.6 C-1.13 9.33, -2.4 7.67, -2.12 6.87 C-1.83 6.07, -0.37 5.51, 1.28 4.79 C2.93 4.07, 6.61 2.79, 7.78 2.53 C8.94 2.26, 9.21 2.68, 8.3 3.2 C7.38 3.72, 3.56 5.42, 2.28 5.63 C1 5.85, 0.19 4.99, 0.63 4.49 C1.06 3.99, 4.47 2.4, 4.88 2.63 C5.28 2.86, 3.86 5.36, 3.07 5.86 C2.28 6.36, 0.58 6.15, 0.13 5.61 C-0.32 5.07, -0.32 3.39, 0.38 2.63 C1.09 1.87, 4.52 1.45, 4.38 1.07 C4.24 0.69, 0.21 0.49, -0.45 0.35 M0.11 1.21 C0.1 0.97, -0.65 0.13, -0.09 0.35 C0.47 0.56, 3.4 1.66, 3.46 2.48 C3.51 3.3, 0.67 4.81, 0.25 5.25 C-0.17 5.68, 0.92 5.29, 0.93 5.08 C0.94 4.87, -0.14 4.33, 0.3 3.99 C0.74 3.65, 2.86 3.18, 3.55 3.03 C4.24 2.88, 4.96 2.37, 4.42 3.1 C3.88 3.83, 0.99 6.43, 0.31 7.41 C-0.37 8.38, 0.8 8.97, 0.35 8.94 C-0.09 8.92, -2.85 7.96, -2.38 7.26 C-1.92 6.57, 1.39 5.62, 3.15 4.78 C4.91 3.95, 7.39 2.57, 8.15 2.25 C8.92 1.92, 8.65 2.33, 7.75 2.86 C6.85 3.38, 3.8 5.45, 2.75 5.41 C1.71 5.37, 0.76 2.93, 1.46 2.6 C2.16 2.27, 6.86 2.94, 6.96 3.44 C7.06 3.95, 3.44 5.74, 2.08 5.63 C0.72 5.52, -0.89 3.49, -1.19 2.79 C-1.49 2.09, -0.45 1.36, 0.29 1.44 C1.02 1.53, 3.35 3.7, 3.23 3.33 C3.12 2.95, 0.03 -0.18, -0.4 -0.81" stroke="#000000" stroke-width="1" fill="none"></path></g></g><g stroke-linecap="round"><g transform="translate(892.9191999226495 151.43321973913316) rotate(0 5.1562384746277985 -1.3619173098408055)"><path d="M0.78 -0.08 C2.46 -0.29, 8.56 -0.54, 10.02 -0.99 C11.49 -1.43, 9.61 -2.76, 9.56 -2.75 M-0.27 -1.17 C1.22 -1.28, 7.36 0.14, 8.83 0.03 C10.31 -0.08, 8.41 -1.34, 8.58 -1.83" stroke="#000000" stroke-width="1" fill="none"></path></g></g><g stroke-linecap="round"><g transform="translate(781.5583628220526 147.93758546727577) rotate(0 133.80885807723513 4.99699803984322)"><path d="M-0.12 0.52 C36.58 2, 175.56 8.84, 219.95 9.99 C264.35 11.13, 258.76 8.36, 266.23 7.39 C273.71 6.42, 265.06 4.8, 264.79 4.16 M-1.65 -0.26 C35.46 1.39, 177.78 7.21, 222.26 8.13 C266.74 9.05, 258.62 5.72, 265.24 5.26 C271.86 4.79, 262.23 5.61, 261.97 5.34" stroke="#000000" stroke-width="1" fill="none"></path></g></g><g stroke-linecap="round"><g transform="translate(780.5596493608517 181.89514614582208) rotate(0 107.43456139369886 1.6394018270875677)"><path d="M-0.84 0.28 C0.79 0.21, -25.91 -1.46, 9.14 -0.63 C44.2 0.19, 176.33 4.31, 209.51 5.23 C242.7 6.15, 208.47 4.82, 208.26 4.9 M0.92 -0.61 C2.46 -1.04, -26.38 -3.21, 8.28 -2.56 C42.94 -1.92, 175.43 1.85, 208.89 3.27 C242.35 4.69, 209.3 5.42, 209.04 5.96" stroke="#000000" stroke-width="1" fill="none"></path></g></g><g stroke-linecap="round"><g transform="translate(977.8130673296017 34.07993042426324) rotate(0 70.67162300188858 -9.605780671541766)"><path d="M1.04 -1.07 C2.79 -3.24, 7.33 -9.72, 11.57 -12.56 C15.82 -15.4, 21.43 -18.74, 26.52 -18.09 C31.6 -17.44, 38.57 -11.49, 42.07 -8.65 C45.57 -5.82, 45.83 -0.57, 47.52 -1.08 C49.2 -1.59, 42.6 -8.14, 52.19 -11.72 C61.78 -15.3, 90.74 -23.94, 105.05 -22.55 C119.37 -21.16, 132.28 -7.62, 138.08 -3.38 C143.88 0.86, 139.91 1.89, 139.84 2.9 M0.12 0.99 C2.15 -1.59, 9.01 -11.4, 13.81 -14.46 C18.61 -17.52, 24.1 -18.45, 28.91 -17.36 C33.72 -16.27, 39.7 -10.63, 42.65 -7.9 C45.6 -5.17, 44.85 -0.16, 46.61 -0.99 C48.37 -1.82, 43.4 -9.06, 53.22 -12.88 C63.04 -16.7, 91.58 -25.38, 105.53 -23.93 C119.48 -22.48, 131.39 -8.98, 136.92 -4.18 C142.45 0.62, 138.55 3.86, 138.7 4.87" stroke="#000000" stroke-width="1" fill="none"></path></g></g></svg>